{
    "asset": {
        "copyright": "2020 (c) Adobe Inc.",
        "generator": "Adobe Dimension - 611127eacd250f22943d21b3c2c9dbaa3a0ef9a2",
        "version": "2.0"
    },
    "accessors": [
        {
            "bufferView": 0,
            "componentType": 5126,
            "count": 2399,
            "type": "VEC3",
            "max": [
                0.09999999403953552,
                0.19999998807907105,
                0.09999999403953552
            ],
            "min": [
                -0.09999999403953552,
                0.0,
                -0.09999999403953552
            ]
        },
        {
            "bufferView": 1,
            "componentType": 5126,
            "count": 2399,
            "type": "VEC3"
        },
        {
            "bufferView": 2,
            "componentType": 5126,
            "count": 2399,
            "type": "VEC2"
        },
        {
            "bufferView": 3,
            "componentType": 5125,
            "count": 13536,
            "type": "SCALAR",
            "max": [
                2398.0
            ],
            "min": [
                0.0
            ]
        }
    ],
    "bufferViews": [
        {
            "buffer": 0,
            "byteOffset": 0,
            "byteLength": 28788,
            "target": 34962
        },
        {
            "buffer": 0,
            "byteOffset": 28788,
            "byteLength": 28788,
            "target": 34962
        },
        {
            "buffer": 0,
            "byteOffset": 57576,
            "byteLength": 19192,
            "target": 34962
        },
        {
            "buffer": 0,
            "byteOffset": 76768,
            "byteLength": 54144,
            "target": 34963
        }
    ],
    "buffers": [
        {
            "byteLength": 130912,
            "uri": "sphere_binary.bin"
        }
    ],
    "cameras": [
        {
            "perspective": {
                "znear": 0.000010000000656873454,
                "yfov": 0.6024156808853149,
                "zfar": 2.0,
                "aspectRatio": 1.3333333730697632
            },
            "type": "perspective",
            "name": "render_camera"
        }
    ],
    "materials": [
        {
            "pbrMetallicRoughness": {
                "baseColorFactor": [
                    0.6307569742202759,
                    0.6307569742202759,
                    0.6307569742202759,
                    1.0
                ],
                "metallicFactor": 0.0,
                "roughnessFactor": 0.4000000059604645
            },
            "name": "Default Material",
            "doubleSided": true
        }
    ],
    "meshes": [
        {
            "name": "PROCEDURAL_MESHES_SPHERE#",
            "primitives": [
                {
                    "attributes": {
                        "TEXCOORD_0": 2,
                        "NORMAL": 1,
                        "POSITION": 0
                    },
                    "indices": 3,
                    "material": 0
                }
            ]
        },
        {
            "name": "PROCEDURAL_MESHES_SPHERE#",
            "primitives": [
                {
                    "attributes": {
                        "POSITION": 0,
                        "NORMAL": 1,
                        "TEXCOORD_0": 2
                    },
                    "indices": 3,
                    "material": 0
                }
            ]
        }
    ],
    "nodes": [
        {
            "translation": [
                0.5,
                0.29999998211860659,
                0.5
            ],
            "rotation": [
                -0.12059047073125839,
                0.379409521818161,
                0.04995020851492882,
                0.9159756302833557
            ],
            "scale": [
                1.0,
                1.0,
                0.9999999403953552
            ],
            "camera": 0,
            "name": "render_camera_n3d"
        },
        {
            "mesh": 0,
            "name": "Sphere"
        },
        {
            "mesh": 1,
            "name": "Sphere 2"
        }
    ],
    "scenes": [
        {
            "nodes": [
                0,
                1,
                2
            ],
            "name": "scene"
        }
    ],
    "scene": 0
}